<svg width="100" height="100" viewBox="0 0 100 100" fill="none" xmlns="http://www.w3.org/2000/svg">
<path d="M58.33 1.94203L92.08 20.0373L92.56 20.3237L93.025 20.6783L93.555 21.0148C95.4302 22.2921 96.9762 23.9262 98.085 25.803C99.1939 27.6799 99.8389 29.7541 99.975 31.881L100 32.8085V65.9255C100 71.2677 96.785 76.1825 91.885 78.624L57.865 98.1833C52.965 100.629 47.035 100.629 41.865 98.0378L8.39 78.7741C5.855 77.5111 3.73922 75.6527 2.26345 73.3927C0.787673 71.1327 0.00600033 68.5539 0 65.9255V32.804C0 27.7755 2.85 23.1289 7.38 20.5056L42.13 1.87383C47.13 -0.635862 53.2 -0.635862 58.33 1.94203ZM60.04 31.2536L57.44 50.1354L54.64 43.7702C53.045 40.1375 47.59 39.9648 45.625 43.2519L45.36 43.7702L42.555 50.1354L39.96 31.2536C39.8081 30.1479 39.215 29.1315 38.2932 28.3973C37.3715 27.6631 36.1853 27.2622 34.96 27.2708L34.38 27.3072C33.0647 27.457 31.8686 28.0757 31.0548 29.0272C30.241 29.9786 29.8759 31.185 30.04 32.3811L35.04 68.7535C35.68 73.4137 42.725 74.2412 44.64 69.8765L50 57.7008L55.36 69.8765C57.275 74.2412 64.32 73.4137 64.96 68.7535L69.96 32.3811C70.0912 31.2 69.7092 30.019 68.8955 29.0905C68.0818 28.1621 66.901 27.5599 65.6055 27.4127C64.31 27.2654 63.0025 27.5848 61.9625 28.3025C60.9225 29.0202 60.2326 30.0794 60.04 31.2536Z" fill="#9147FF"/>
</svg>
